<svg width="40" height="40" viewBox="0 0 40 40" fill="none" xmlns="http://www.w3.org/2000/svg">
<rect width="40" height="40" rx="4" fill="#A0B2FA"/>
<path d="M13.25 13.5C12.8344 13.5 12.5 13.8344 12.5 14.25V15.75C12.5 16.1656 12.8344 16.5 13.25 16.5H14.75C15.1656 16.5 15.5 16.1656 15.5 15.75V14.25C15.5 13.8344 15.1656 13.5 14.75 13.5H13.25ZM18 14C17.4469 14 17 14.4469 17 15C17 15.5531 17.4469 16 18 16H27C27.5531 16 28 15.5531 28 15C28 14.4469 27.5531 14 27 14H18ZM18 19C17.4469 19 17 19.4469 17 20C17 20.5531 17.4469 21 18 21H27C27.5531 21 28 20.5531 28 20C28 19.4469 27.5531 19 27 19H18ZM18 24C17.4469 24 17 24.4469 17 25C17 25.5531 17.4469 26 18 26H27C27.5531 26 28 25.5531 28 25C28 24.4469 27.5531 24 27 24H18ZM12.5 19.25V20.75C12.5 21.1656 12.8344 21.5 13.25 21.5H14.75C15.1656 21.5 15.5 21.1656 15.5 20.75V19.25C15.5 18.8344 15.1656 18.5 14.75 18.5H13.25C12.8344 18.5 12.5 18.8344 12.5 19.25ZM13.25 23.5C12.8344 23.5 12.5 23.8344 12.5 24.25V25.75C12.5 26.1656 12.8344 26.5 13.25 26.5H14.75C15.1656 26.5 15.5 26.1656 15.5 25.75V24.25C15.5 23.8344 15.1656 23.5 14.75 23.5H13.25Z" fill="#454EB0"/>
</svg>
